<svg xmlns="http://www.w3.org/2000/svg" width="20.436" height="29.195" viewBox="0 0 20.436 29.195">
  <g id="location_pin" transform="translate(-5 -2)">
    <path id="Path_2141" data-name="Path 2141" d="M15.218,2A10.211,10.211,0,0,0,5,12.218a13.287,13.287,0,0,0,2.058,7.065c1.387,2.248,3.211,4.175,4.613,6.423a25.191,25.191,0,0,1,1.708,3.3c.38.8.686,2.19,1.839,2.19s1.46-1.387,1.825-2.19a27.107,27.107,0,0,1,1.708-3.3c1.4-2.233,3.226-4.16,4.613-6.423a13.174,13.174,0,0,0,2.073-7.065A10.211,10.211,0,0,0,15.218,2Zm0,14.232a3.649,3.649,0,1,1,3.649-3.649A3.649,3.649,0,0,1,15.218,16.232Z" fill="#cb955b"/>
  </g>
</svg>
